<?xml version="1.0" encoding="UTF-8"?>
<svg version="1.1" xmlns="http://www.w3.org/2000/svg" width="192" height="192">
<path d="M0 0 C2.18341574 0.00851187 4.36420341 -0.02037972 6.54736328 -0.05200195 C26.18907418 -0.14916493 47.20012874 6.5397496 62.31689453 19.44604492 C62.31689453 20.10604492 62.31689453 20.76604492 62.31689453 21.44604492 C62.87376953 21.69354492 63.43064453 21.94104492 64.00439453 22.19604492 C69.42644607 25.12688359 73.74113862 29.45718959 77.31689453 34.44604492 C77.31689453 35.10604492 77.31689453 35.76604492 77.31689453 36.44604492 C78.30689453 36.77604492 79.29689453 37.10604492 80.31689453 37.44604492 C93.58704777 53.0951612 98.88137955 74.11053967 98.76293945 94.12915039 C98.75442759 96.31256613 98.78331917 98.4933538 98.81494141 100.67651367 C98.91210439 120.31822458 92.22318985 141.32927913 79.31689453 156.44604492 C78.65689453 156.44604492 77.99689453 156.44604492 77.31689453 156.44604492 C77.06939453 157.00291992 76.82189453 157.55979492 76.56689453 158.13354492 C73.63605586 163.55559646 69.30574986 167.87028901 64.31689453 171.44604492 C63.65689453 171.44604492 62.99689453 171.44604492 62.31689453 171.44604492 C61.98689453 172.43604492 61.65689453 173.42604492 61.31689453 174.44604492 C45.66777825 187.71619816 24.65239978 193.01052994 4.63378906 192.89208984 C2.45037333 192.88357798 0.26958565 192.91246956 -1.91357422 192.9440918 C-21.55528512 193.04125478 -42.56633968 186.35234024 -57.68310547 173.44604492 C-57.68310547 172.78604492 -57.68310547 172.12604492 -57.68310547 171.44604492 C-58.23998047 171.19854492 -58.79685547 170.95104492 -59.37060547 170.69604492 C-64.79265701 167.76520625 -69.10734955 163.43490025 -72.68310547 158.44604492 C-72.68310547 157.78604492 -72.68310547 157.12604492 -72.68310547 156.44604492 C-73.67310547 156.11604492 -74.66310547 155.78604492 -75.68310547 155.44604492 C-88.9532587 139.79692864 -94.24759049 118.78155017 -94.12915039 98.76293945 C-94.12063852 96.57952372 -94.14953011 94.39873604 -94.18115234 92.21557617 C-94.27831533 72.57386527 -87.58940079 51.56281071 -74.68310547 36.44604492 C-74.02310547 36.44604492 -73.36310547 36.44604492 -72.68310547 36.44604492 C-72.43560547 35.88916992 -72.18810547 35.33229492 -71.93310547 34.75854492 C-69.0022668 29.33649338 -64.6719608 25.02180084 -59.68310547 21.44604492 C-59.02310547 21.44604492 -58.36310547 21.44604492 -57.68310547 21.44604492 C-57.18810547 19.96104492 -57.18810547 19.96104492 -56.68310547 18.44604492 C-41.03398919 5.17589169 -20.01861072 -0.11844009 0 0 Z " fill="#C04000" transform="translate(93.68310546875,-0.446044921875)"/>
<path d="M0 0 C3.25877467 3.25877467 4.28805997 6.13187133 4.5 10.625 C4.20909546 18.79270452 2.18757822 26.80461489 0.47412109 34.76806641 C-0.25871324 38.21789724 -0.88607886 41.68301205 -1.49609375 45.15625 C-1.91018612 47.49314336 -2.3435194 49.82449088 -2.78515625 52.15625 C-3.06526781 53.66663633 -3.34521535 55.17705308 -3.625 56.6875 C-3.76043213 57.3889917 -3.89586426 58.0904834 -4.03540039 58.81323242 C-5.12398095 64.77410587 -6.31385295 71.37229411 -3.5 77 C-3.005 77.99 -2.51 78.98 -2 80 C4.70598887 80.63866561 8.40048603 79.92990041 13.81640625 75.875 C26.62236194 64.87883054 36.82112527 47.43639416 39.5390625 30.67578125 C39.85612595 24.1592929 38.29267787 19.87448288 35.12890625 14.25 C33.48512222 10.97380762 33.36788669 8.58197545 34 5 C35.53837607 2.05144586 36.6607629 0.45293614 39.87109375 -0.6328125 C43.41033684 -1.26171392 45.51385316 -1.20079978 48.875 0.1875 C52.33302226 3.13698957 52.9135964 5.25448222 53.44140625 9.80859375 C54.54714009 36.61310711 40.84208351 59.15222953 23.6875 78.625 C15.95833362 86.79583303 5.49814764 94.73439844 -6.125 95.4375 C-11.94302519 94.78062619 -15.27924461 92.29460406 -18.875 87.8125 C-24.1358121 78.76254993 -21.33872188 63.65805517 -19 54 C-18.67902344 53.09765625 -18.35804687 52.1953125 -18.02734375 51.265625 C-16.69736446 47.03801021 -16.07736471 42.81498712 -15.4375 38.4375 C-15.1870919 36.7693968 -14.93581507 35.10142375 -14.68359375 33.43359375 C-14.56733643 32.6557251 -14.4510791 31.87785645 -14.33129883 31.07641602 C-14.07287494 29.45674384 -13.75492951 27.84653489 -13.4140625 26.2421875 C-12.94116657 23.68141143 -12.90280997 21.289252 -12.9375 18.6875 C-12.94652344 17.80449219 -12.95554687 16.92148438 -12.96484375 16.01171875 C-12.97644531 15.34785156 -12.98804687 14.68398438 -13 14 C-16.32741108 14.59496754 -18.17090408 15.70477173 -20.6875 17.9375 C-21.28949219 18.46214844 -21.89148437 18.98679687 -22.51171875 19.52734375 C-24.10885279 20.9500143 -24.10885279 20.9500143 -25 23 C-25.66 23 -26.32 23 -27 23 C-29 20 -29 20 -28.90625 18.1171875 C-25.57939715 10.34497094 -16.22017271 4.00136361 -9 0 C-5.3678011 -1.21073297 -3.65436277 -1.11868248 0 0 Z " fill="#FDF9F7" transform="translate(84,49)"/>
</svg>
