<svg version="1.1" id="Layer_1" xmlns="http://www.w3.org/2000/svg" xmlns:xlink="http://www.w3.org/1999/xlink" x="0px" y="0px"
	 width="100%" viewBox="0 0 192 192" enable-background="0 0 0 0" xml:space="preserve">
<path fill="#C04001" opacity="1.000000" stroke="none" 
	d="
M1.000002,118.000000 
	C1.000000,104.312439 1.000000,90.624878 1.377539,76.620682 
	C2.891268,72.802254 3.837693,69.224823 5.197937,65.812340 
	C9.973190,53.832558 15.172068,42.049797 24.620592,32.842381 
	C30.021421,27.579367 35.105564,21.734711 41.299709,17.601856 
	C50.890705,11.202556 61.111935,5.625564 72.784676,3.535533 
	C73.969788,3.323337 74.933533,1.874802 76.000000,1.000000 
	C89.687561,1.000000 103.375122,1.000000 117.379318,1.377540 
	C119.279045,2.489094 120.792053,3.533164 122.456039,3.909275 
	C139.545746,7.772071 153.770309,16.786028 165.865738,29.013142 
	C177.981979,41.261292 186.743134,55.659672 190.458939,72.790382 
	C190.718643,73.987648 192.126205,74.935936 193.000000,76.000000 
	C193.000000,89.687561 193.000000,103.375122 192.622467,117.379318 
	C191.108749,121.197731 190.162170,124.775078 188.802124,128.187637 
	C184.027481,140.167862 178.827576,151.950119 169.379318,161.157761 
	C163.978683,166.420853 158.894775,172.265808 152.700562,176.398285 
	C143.109283,182.797119 132.888184,188.374619 121.215340,190.464462 
	C120.030228,190.676636 119.066475,192.125198 118.000000,193.000000 
	C104.312439,193.000000 90.624878,193.000000 76.620682,192.622467 
	C72.802254,191.108734 69.224907,190.162155 65.812332,188.802109 
	C53.832062,184.027512 42.049885,178.827499 32.842216,169.379272 
	C27.579100,163.978668 21.734154,158.894760 17.601675,152.700546 
	C11.202847,143.109283 5.625372,132.888184 3.535533,121.215324 
	C3.323357,120.030212 1.874805,119.066467 1.000002,118.000000 
M122.806793,80.136887 
	C123.320473,78.041786 123.993401,75.971252 124.320961,73.847458 
	C125.955185,63.251564 118.819176,56.320370 108.286522,58.192284 
	C101.208351,59.450249 95.982430,64.330513 95.275238,72.043556 
	C94.629662,79.084473 95.353828,86.247047 95.383293,93.356384 
	C95.391205,95.264641 95.598778,97.445503 94.790680,99.029968 
	C92.757484,103.016556 90.486008,106.959587 87.742569,110.477531 
	C86.020920,112.685234 82.105431,116.035957 81.204269,115.494606 
	C78.499687,113.869865 76.649475,110.681808 74.771469,107.897659 
	C74.101242,106.904037 74.068840,105.305534 74.149773,104.008369 
	C74.654121,95.924660 75.209068,87.842804 75.877457,79.771111 
	C76.302185,74.641975 77.205002,69.542259 77.423630,64.409332 
	C77.610863,60.013451 75.198738,56.896374 70.726601,56.548679 
	C61.554569,55.835587 53.534363,58.194542 52.639675,69.474358 
	C52.377651,72.777817 51.975388,76.151505 52.355721,79.409149 
	C53.454365,88.819244 54.261600,98.341560 56.426804,107.526680 
	C58.541847,116.499031 61.970772,125.193504 65.266731,133.840790 
	C66.690010,137.574936 70.285065,138.996567 73.989174,137.298874 
	C78.465706,135.247162 83.133469,133.093887 86.806122,129.926636 
	C92.546593,124.976120 97.520676,119.136932 103.098122,113.386932 
	C104.380074,114.774635 105.685127,116.528481 107.315620,117.893600 
	C114.576744,123.972931 122.773605,124.330093 131.251907,121.160225 
	C138.963913,118.276855 141.933624,112.034134 141.927185,104.236366 
	C141.925537,102.246948 140.896515,100.258385 140.339523,98.269424 
	C138.570511,99.280716 136.492828,99.979324 135.091278,101.362862 
	C131.140839,105.262566 126.759834,108.050583 121.041588,107.896194 
	C114.592339,107.722084 111.064308,101.077698 114.286407,95.663010 
	C117.172089,90.813652 119.791061,85.805588 122.806793,80.136887 
z"/>
<path fill="#000000" opacity="1.000000" stroke="none" 
	d="
M193.000000,75.531342 
	C192.126205,74.935936 190.718643,73.987648 190.458939,72.790382 
	C186.743134,55.659672 177.981979,41.261292 165.865738,29.013142 
	C153.770309,16.786028 139.545746,7.772071 122.456039,3.909275 
	C120.792053,3.533164 119.279045,2.489094 117.847977,1.377540 
	C142.926865,1.000000 167.853729,1.000000 193.000000,1.000000 
	C193.000000,25.687128 193.000000,50.374905 193.000000,75.531342 
z"/>
<path fill="#000000" opacity="1.000000" stroke="none" 
	d="
M75.531342,1.000000 
	C74.933533,1.874802 73.969788,3.323337 72.784676,3.535533 
	C61.111935,5.625564 50.890705,11.202556 41.299709,17.601856 
	C35.105564,21.734711 30.021421,27.579367 24.620592,32.842381 
	C15.172068,42.049797 9.973190,53.832558 5.197937,65.812340 
	C3.837693,69.224823 2.891268,72.802254 1.377539,76.152023 
	C1.000000,51.073132 1.000000,26.146261 1.000000,1.000000 
	C25.687128,1.000000 50.374905,1.000000 75.531342,1.000000 
z"/>
<path fill="#000000" opacity="1.000000" stroke="none" 
	d="
M1.000002,118.468658 
	C1.874805,119.066467 3.323357,120.030212 3.535533,121.215324 
	C5.625372,132.888184 11.202847,143.109283 17.601675,152.700546 
	C21.734154,158.894760 27.579100,163.978668 32.842216,169.379272 
	C42.049885,178.827499 53.832062,184.027512 65.812332,188.802109 
	C69.224907,190.162155 72.802254,191.108734 76.152023,192.622467 
	C51.073124,193.000000 26.146250,193.000000 1.000000,193.000000 
	C1.000000,168.312866 1.000000,143.625092 1.000002,118.468658 
z"/>
<path fill="#000000" opacity="1.000000" stroke="none" 
	d="
M118.468658,193.000000 
	C119.066475,192.125198 120.030228,190.676636 121.215340,190.464462 
	C132.888184,188.374619 143.109283,182.797119 152.700562,176.398285 
	C158.894775,172.265808 163.978683,166.420853 169.379318,161.157761 
	C178.827576,151.950119 184.027481,140.167862 188.802124,128.187637 
	C190.162170,124.775078 191.108749,121.197731 192.622467,117.847977 
	C193.000000,142.926865 193.000000,167.853745 193.000000,193.000000 
	C168.312866,193.000000 143.625092,193.000000 118.468658,193.000000 
z"/>
<path fill="#FEFBFA" opacity="1.000000" stroke="none" 
	d="
M122.667252,80.502213 
	C119.791061,85.805588 117.172089,90.813652 114.286407,95.663010 
	C111.064308,101.077698 114.592339,107.722084 121.041588,107.896194 
	C126.759834,108.050583 131.140839,105.262566 135.091278,101.362862 
	C136.492828,99.979324 138.570511,99.280716 140.339523,98.269424 
	C140.896515,100.258385 141.925537,102.246948 141.927185,104.236366 
	C141.933624,112.034134 138.963913,118.276855 131.251907,121.160225 
	C122.773605,124.330093 114.576744,123.972931 107.315620,117.893600 
	C105.685127,116.528481 104.380074,114.774635 103.098122,113.386932 
	C97.520676,119.136932 92.546593,124.976120 86.806122,129.926636 
	C83.133469,133.093887 78.465706,135.247162 73.989174,137.298874 
	C70.285065,138.996567 66.690010,137.574936 65.266731,133.840790 
	C61.970772,125.193504 58.541847,116.499031 56.426804,107.526680 
	C54.261600,98.341560 53.454365,88.819244 52.355721,79.409149 
	C51.975388,76.151505 52.377651,72.777817 52.639675,69.474358 
	C53.534363,58.194542 61.554569,55.835587 70.726601,56.548679 
	C75.198738,56.896374 77.610863,60.013451 77.423630,64.409332 
	C77.205002,69.542259 76.302185,74.641975 75.877457,79.771111 
	C75.209068,87.842804 74.654121,95.924660 74.149773,104.008369 
	C74.068840,105.305534 74.101242,106.904037 74.771469,107.897659 
	C76.649475,110.681808 78.499687,113.869865 81.204269,115.494606 
	C82.105431,116.035957 86.020920,112.685234 87.742569,110.477531 
	C90.486008,106.959587 92.757484,103.016556 94.790680,99.029968 
	C95.598778,97.445503 95.391205,95.264641 95.383293,93.356384 
	C95.353828,86.247047 94.629662,79.084473 95.275238,72.043556 
	C95.982430,64.330513 101.208351,59.450249 108.286522,58.192284 
	C118.819176,56.320370 125.955185,63.251564 124.320961,73.847458 
	C123.993401,75.971252 123.320473,78.041786 122.667252,80.502213 
z"/>
</svg>